<svg xmlns="http://www.w3.org/2000/svg" viewBox="0 0 404.46 175.33"><defs><style>.cls-1{fill:#7c6c63;}.cls-2{fill:#231815;}.cls-3{fill:#c9caca;}</style></defs><title>資產 1</title><g id="圖層_2" data-name="圖層 2"><g id="分離模式"><path class="cls-1" d="M241.53,68.14l-86.44,76.65q15,14.64,33.73,15.24t34-12.91a46.64,46.64,0,0,0,14.45-22.81,49,49,0,0,0-.48-27.37l13.93-12.35q7.48,21.76,3,40.88t-20.17,33.1Q212.66,177.08,185,175t-46.18-23q-19.37-21.84-17.89-48.66T144.45,57q21.6-19.15,48.39-16.37t47.89,26.57Zm-23.07,1.33q-17.65-12.88-34.12-12.7T152.89,70.24Q139,82.57,137,99.83t9,33.94Z"/><path class="cls-2" d="M255.37,107.13v-.06h0Z"/><path class="cls-3" d="M253.72,125.47a60.26,60.26,0,0,1-15,28v21.79h16.63l0-61.68A74.48,74.48,0,0,1,253.72,125.47Z"/><path class="cls-1" d="M0,40.27H16.73V57.92A49,49,0,0,1,34.87,44.55,60.1,60.1,0,0,1,58.4,40.22c9.72,0,18.24,1.51,25.82,5.12a44.38,44.38,0,0,1,18.14,15.83,49,49,0,0,1,6.56,16.68q2,9.57,2,28.24v69.24H94.17V101.15c0-15.65-2.81-27.17-9-34.08s-15.54-10.6-28.71-10.6a42.7,42.7,0,0,0-20.3,4.64A34.32,34.32,0,0,0,22.4,74.42,38.06,38.06,0,0,0,18,86.76q-1.26,6.93-1.27,24.14v64.43H0Z"/><rect class="cls-3" width="16.73" height="40.27"/><path class="cls-1" d="M404.46,106.94c0-19-6.83-33.94-20.43-47.07s-30-19.73-49.19-19.73q-28.41,0-48.65,19.67c-13.48,13.08-20.35,29.57-20.37,48.45h0v.1c0,19,6.83,34,20.43,47.08a69.7,69.7,0,0,0,21.63,14.38L321.73,156a53.9,53.9,0,0,1-30.58-20.12A44.91,44.91,0,0,1,285,124.78a47.67,47.67,0,0,1-3-16.42s0-.17,0-.25h0c0-8.08,1.55-15.69,5.16-22.45a47.27,47.27,0,0,1,8.21-11.31,55.63,55.63,0,0,1,83.77,5.11,44.73,44.73,0,0,1,6.16,11.06,47.68,47.68,0,0,1,3,16.68h0c0,.39,0,1.16,0,1.16a47.15,47.15,0,0,1-5.09,21.24A48,48,0,0,1,375,140.9a54.27,54.27,0,0,1-26.42,15l14,14a69.16,69.16,0,0,0,21.6-14.43c13.16-12.77,20-28.8,20.3-47.13,0,0,0-.85,0-1.27h0v-.1Z"/><path class="cls-3" d="M348.58,155.89a57.5,57.5,0,0,1-13.43,1.65,56.64,56.64,0,0,1-13.46-1.63l-13.87,13.87a70.79,70.79,0,0,0,27.57,5.34,70,70,0,0,0,27.17-5.25Z"/></g></g></svg>